<?xml version="1.0" encoding="UTF-8"?>
<svg xmlns="http://www.w3.org/2000/svg">
    <polyline
        points="373,221 373,221 373,220 373,219 373,218 373,216 373,214 373,212 373,210 373,208 370,201 369,197 366,190 363,184 360,177 357,171 353,165 349,160 345,156 342,153 338,149 336,147 332,145 329,144 328,142 323,140 319,139 316,138 311,137 307,135 301,134 297,132 291,132 288,132 283,132 281,132 279,132 277,132 274,134 272,135 268,136 263,138 259,142 253,146 249,149 243,154 240,156 238,158 236,161 236,162 233,166 232,169 232,170 232,174 231,177 229,182 228,186 226,193 225,196 225,200 225,206 225,209 225,213 225,218 225,221 225,226 225,229 225,233 226,238 227,242 230,248 233,254 236,260 238,265 241,273 246,279 249,282 252,287 256,292 260,295 264,301 269,306 270,311 274,314 278,318 283,323 289,328 295,333 302,337 307,341 317,348 324,353 331,357 340,361 347,366 353,370 358,372 361,374 364,376 367,377 367,378 " style="fill:none;stroke-width:1;stroke:rgb(255,51,0)"/>
    <polyline
        points="373,217 373,217 374,216 376,214 376,211 376,206 376,199 377,193 377,183 380,172 382,163 383,156 389,147 392,140 395,134 397,127 398,124 401,120 404,116 406,112 408,111 409,109 411,108 414,107 416,107 418,106 420,105 422,105 424,104 425,104 429,104 432,104 436,104 440,104 443,104 446,106 455,109 458,111 462,113 464,116 469,118 473,122 477,126 483,132 487,137 491,141 494,145 496,149 497,152 500,155 501,159 502,162 504,167 507,172 507,175 508,179 508,181 509,187 510,192 510,198 512,203 512,209 512,212 512,217 512,222 512,228 512,232 512,235 512,240 512,244 512,248 510,253 510,258 508,264 504,273 501,279 499,284 496,290 495,295 492,299 490,304 487,309 485,312 483,317 480,321 476,325 474,328 471,333 468,336 466,339 463,343 463,344 462,345 461,347 459,349 459,350 456,353 455,356 454,356 453,359 452,360 451,361 450,363 450,364 448,367 446,370 445,370 445,371 441,374 440,375 439,376 437,378 434,379 433,380 431,382 429,382 426,383 426,384 425,384 423,386 422,386 420,387 418,388 415,390 414,391 412,392 410,393 409,394 408,394 408,395 407,395 406,396 405,396 404,398 403,399 402,400 402,401 400,402 400,403 399,402 398,400 397,397 395,395 395,394 394,393 393,391 392,390 391,389 390,388 390,387 389,387 389,386 388,385 386,383 386,382 384,380 383,380 382,380 381,378 380,378 379,377 378,377 377,377 376,377 375,377 374,377 373,377 372,377 371,377 370,377 369,377 " style="fill:none;stroke-width:1;stroke:rgb(255,51,0)"/>
    <polyline
        points="214,437 214,437 214,438 214,440 214,445 214,449 214,452 214,457 214,463 214,471 214,478 214,486 214,495 214,502 212,510 211,517 211,522 211,526 211,529 211,533 211,535 211,538 211,541 211,545 211,548 211,550 211,551 211,553 211,554 211,553 211,548 211,545 211,541 211,538 211,534 211,531 211,527 211,525 211,521 211,518 211,514 211,511 211,507 211,504 211,501 211,499 211,498 211,497 211,496 211,494 211,492 211,490 211,488 211,487 211,486 211,485 211,484 211,483 211,482 211,481 211,479 211,477 211,476 211,475 211,474 211,473 211,472 211,471 211,470 211,468 211,466 211,465 211,463 211,460 211,459 211,458 211,457 211,456 212,455 212,454 212,453 " style="fill:none;stroke-width:1;stroke:rgb(255,51,0)"/>
    <polyline
        points="214,436 214,436 214,437 219,441 227,447 230,451 236,455 239,460 244,465 247,468 249,472 253,479 256,484 260,487 264,493 268,498 270,500 276,508 279,512 283,518 287,522 290,527 290,529 292,532 293,534 295,538 298,542 300,546 302,549 303,551 304,553 304,555 305,555 306,557 307,558 307,559 308,560 308,561 " style="fill:none;stroke-width:1;stroke:rgb(255,51,0)"/>
    <polyline
        points="214,515 214,515 213,515 216,515 218,513 221,513 225,511 231,510 233,508 236,508 240,508 243,506 245,506 249,504 250,504 253,504 257,503 259,503 262,503 266,503 268,501 269,501 270,501 272,501 274,501 " style="fill:none;stroke-width:1;stroke:rgb(255,51,0)"/>
    <polyline
        points="359,448 359,448 359,449 357,453 355,458 350,464 349,469 346,474 346,477 344,481 342,483 342,487 341,489 340,490 340,491 338,494 337,496 336,499 333,504 332,504 330,507 330,509 329,511 328,511 327,512 327,513 327,511 327,508 327,504 330,496 333,491 336,486 339,482 341,480 344,475 345,474 347,472 348,469 350,466 351,463 352,462 352,460 352,459 352,458 352,456 353,455 353,454 353,453 354,453 354,451 355,451 358,451 358,450 358,452 360,457 361,462 361,466 362,471 362,474 363,478 363,482 365,490 365,497 366,505 368,512 368,520 368,527 368,533 369,537 371,540 371,546 372,548 372,552 373,556 373,558 373,559 373,561 373,562 373,563 373,565 373,566 " style="fill:none;stroke-width:1;stroke:rgb(255,51,0)"/>
    <polyline
        points="343,576 343,576 345,572 348,570 353,568 357,567 363,564 369,562 377,561 384,561 390,559 394,558 397,558 402,558 407,557 409,557 412,556 415,554 417,553 420,552 421,552 422,551 423,551 423,550 " style="fill:none;stroke-width:1;stroke:rgb(255,51,0)"/>
    <polyline
        points="21,458 21,458 21,459 22,459 27,459 33,459 40,458 48,458 57,458 64,456 71,456 75,455 77,453 79,453 " style="fill:none;stroke-width:1;stroke:rgb(255,51,0)"/>
    <polyline
        points="51,462 51,462 50,462 50,464 50,468 50,471 50,476 50,481 50,490 50,501 50,512 53,523 53,532 53,541 53,545 53,551 53,553 53,555 53,557 53,558 53,559 53,560 53,561 53,563 " style="fill:none;stroke-width:1;stroke:rgb(255,51,0)"/>
    <polyline
        points="20,570 20,570 20,569 21,568 23,568 28,568 31,568 37,566 40,565 44,565 50,563 53,562 58,561 60,561 63,561 67,560 72,560 75,558 78,558 80,558 82,558 84,557 86,557 88,557 89,557 " style="fill:none;stroke-width:1;stroke:rgb(255,51,0)"/>
    <polyline
        points="136,455 136,455 135,456 135,458 135,460 133,462 130,465 128,468 125,472 120,477 116,482 111,486 109,490 108,491 107,492 106,493 106,494 106,495 106,496 " style="fill:none;stroke-width:1;stroke:rgb(255,51,0)"/>
    <polyline
        points="136,454 136,454 137,454 137,456 138,460 138,463 138,468 138,473 139,479 139,487 139,495 139,503 139,511 139,517 139,519 139,521 139,523 139,525 139,527 139,528 139,532 139,536 139,538 139,540 139,543 139,544 139,547 139,549 139,550 139,551 139,553 139,554 139,556 139,557 139,558 " style="fill:none;stroke-width:1;stroke:rgb(255,51,0)"/>
    <polyline
        points="114,565 114,565 114,564 114,563 117,561 124,558 128,558 134,558 138,557 145,555 148,555 152,555 156,555 162,553 164,553 169,553 172,552 177,550 179,549 184,548 188,547 193,547 195,547 197,546 198,545 " style="fill:none;stroke-width:1;stroke:rgb(255,51,0)"/>
</svg>
